<?xml version="1.0" encoding="UTF-8"?>
<svg xmlns="http://www.w3.org/2000/svg" xmlns:xlink="http://www.w3.org/1999/xlink" width="200px" height="213px" viewBox="0 0 200 212" version="1.1">
<g id="surface1">
<path style=" stroke:none;fill-rule:nonzero;fill:rgb(0%,0%,0%);fill-opacity:1;" d="M 87.3125 211.425781 C 81.308594 211.191406 72.234375 210.597656 67.148438 210.109375 C 46.625 208.132812 47.914062 208.398438 45.304688 205.625 C 44.007812 204.246094 43.890625 203.660156 43.703125 197.628906 C 43.589844 194.046875 43.792969 188.355469 44.152344 184.980469 C 44.839844 178.5 45.960938 132.675781 46.078125 106.335938 C 46.148438 90.316406 45.601562 84.011719 43.785156 79.839844 L 42.933594 77.890625 L 36.894531 84.199219 C 32.050781 89.265625 30.542969 90.519531 29.261719 90.554688 C 27.703125 90.597656 22.085938 88.140625 16.460938 84.957031 C 14.921875 84.085938 12.402344 82.660156 10.859375 81.789062 C 9.320312 80.917969 6.839844 79.574219 5.347656 78.800781 C -0.453125 75.800781 -1.492188 71.964844 2.039062 66.585938 C 3.191406 64.828125 4.261719 63.261719 4.417969 63.109375 C 4.574219 62.957031 5.40625 61.515625 6.269531 59.90625 C 8.503906 55.746094 15.410156 45.222656 17.160156 43.3125 C 17.546875 42.894531 17.863281 42.40625 17.863281 42.226562 C 17.863281 41.710938 20.878906 37.6875 26.71875 30.414062 C 31.308594 24.695312 32.789062 23.261719 36.34375 21.09375 C 38.65625 19.683594 42.308594 17.882812 44.464844 17.089844 C 46.621094 16.296875 49.773438 15.003906 51.46875 14.21875 C 53.160156 13.433594 56.371094 12.070312 58.597656 11.1875 C 62.648438 9.582031 73.121094 4.308594 74.125 3.371094 C 74.417969 3.09375 75.226562 2.871094 75.921875 2.871094 C 76.617188 2.871094 77.671875 2.355469 78.257812 1.726562 C 80.074219 -0.214844 82.144531 -0.410156 86.242188 0.972656 C 91.890625 2.875 103.757812 3.820312 110.695312 2.917969 C 113.699219 2.527344 117.5625 1.726562 119.277344 1.144531 C 123.191406 -0.191406 125.4375 -0.203125 127.144531 1.101562 C 127.878906 1.664062 131.632812 3.648438 135.484375 5.507812 C 142.816406 9.050781 155.128906 14.863281 157.046875 15.683594 C 170.921875 21.628906 172.835938 23.292969 180.125 35.742188 C 181.84375 38.675781 183.71875 41.753906 184.289062 42.582031 C 184.855469 43.410156 186.554688 46.546875 188.058594 49.554688 C 189.5625 52.5625 192.875 59.039062 195.417969 63.945312 C 198.234375 69.378906 200.027344 73.5 200.003906 74.476562 C 199.96875 75.984375 197.507812 79.285156 196.417969 79.285156 C 196.160156 79.285156 194.886719 79.957031 193.582031 80.785156 C 191.046875 82.386719 186.460938 84.894531 179.8125 88.320312 C 174.113281 91.253906 171.414062 91.253906 168.601562 88.316406 C 167.484375 87.148438 165.941406 85.328125 165.175781 84.273438 C 163.519531 81.992188 159.625 78.167969 158.957031 78.167969 C 158.089844 78.167969 157.347656 80.257812 156.140625 86.070312 C 154.367188 94.609375 154.027344 101.007812 154.589844 115.261719 C 154.867188 122.316406 155.332031 138.632812 155.621094 151.515625 C 155.910156 164.398438 156.414062 181.234375 156.742188 188.925781 C 157.167969 198.914062 157.164062 203.40625 156.730469 204.636719 C 155.832031 207.207031 153.117188 208.230469 145.003906 209.058594 C 117.726562 211.84375 115.734375 211.992188 106.636719 211.917969 C 102.015625 211.878906 93.320312 211.65625 87.3125 211.425781 Z M 87.3125 211.425781 "/>
</g>
</svg>
